<mxfile host="65bd71144e">
    <diagram id="C5RBs43oDa-KdzZeNtuy" name="Page-1">
        <mxGraphModel dx="1820" dy="1375" grid="1" gridSize="10" guides="1" tooltips="1" connect="1" arrows="1" fold="1" page="1" pageScale="1" pageWidth="1200" pageHeight="1600" math="0" shadow="0">
            <root>
                <mxCell id="WIyWlLk6GJQsqaUBKTNV-0"/>
                <mxCell id="WIyWlLk6GJQsqaUBKTNV-1" parent="WIyWlLk6GJQsqaUBKTNV-0"/>
                <mxCell id="e-oUY0fip-9kM2Vb8ICr-0" value="Car (Abstract)" style="swimlane;fontStyle=1;align=center;verticalAlign=top;childLayout=stackLayout;horizontal=1;startSize=26;horizontalStack=0;resizeParent=1;resizeParentMax=0;resizeLast=0;collapsible=1;marginBottom=0;" parent="WIyWlLk6GJQsqaUBKTNV-1" vertex="1">
                    <mxGeometry x="444" y="320" width="160" height="100" as="geometry"/>
                </mxCell>
                <mxCell id="e-oUY0fip-9kM2Vb8ICr-1" value="+ last_service_date: int" style="text;strokeColor=none;fillColor=none;align=left;verticalAlign=top;spacingLeft=4;spacingRight=4;overflow=hidden;rotatable=0;points=[[0,0.5],[1,0.5]];portConstraint=eastwest;" parent="e-oUY0fip-9kM2Vb8ICr-0" vertex="1">
                    <mxGeometry y="26" width="160" height="26" as="geometry"/>
                </mxCell>
                <mxCell id="e-oUY0fip-9kM2Vb8ICr-2" value="" style="line;strokeWidth=1;fillColor=none;align=left;verticalAlign=middle;spacingTop=-1;spacingLeft=3;spacingRight=3;rotatable=0;labelPosition=right;points=[];portConstraint=eastwest;strokeColor=inherit;" parent="e-oUY0fip-9kM2Vb8ICr-0" vertex="1">
                    <mxGeometry y="52" width="160" height="8" as="geometry"/>
                </mxCell>
                <mxCell id="e-oUY0fip-9kM2Vb8ICr-3" value="+ needs_service(): bool &#10;(abstract)" style="text;strokeColor=none;fillColor=none;align=left;verticalAlign=top;spacingLeft=4;spacingRight=4;overflow=hidden;rotatable=0;points=[[0,0.5],[1,0.5]];portConstraint=eastwest;" parent="e-oUY0fip-9kM2Vb8ICr-0" vertex="1">
                    <mxGeometry y="60" width="160" height="40" as="geometry"/>
                </mxCell>
                <mxCell id="e-oUY0fip-9kM2Vb8ICr-13" style="edgeStyle=elbowEdgeStyle;rounded=0;orthogonalLoop=1;jettySize=auto;html=1;exitX=0.5;exitY=0;exitDx=0;exitDy=0;entryX=0.504;entryY=1.058;entryDx=0;entryDy=0;entryPerimeter=0;fontSize=11;" parent="WIyWlLk6GJQsqaUBKTNV-1" source="e-oUY0fip-9kM2Vb8ICr-4" target="e-oUY0fip-9kM2Vb8ICr-3" edge="1">
                    <mxGeometry relative="1" as="geometry"/>
                </mxCell>
                <mxCell id="e-oUY0fip-9kM2Vb8ICr-4" value="Willoughby Engine" style="swimlane;fontStyle=1;align=center;verticalAlign=top;childLayout=stackLayout;horizontal=1;startSize=26;horizontalStack=0;resizeParent=1;resizeParentMax=0;resizeLast=0;collapsible=1;marginBottom=0;" parent="WIyWlLk6GJQsqaUBKTNV-1" vertex="1">
                    <mxGeometry x="424" y="520" width="200" height="120" as="geometry"/>
                </mxCell>
                <mxCell id="e-oUY0fip-9kM2Vb8ICr-5" value="+ last_service_date: int&#10;+ current_mileage: int&#10;+ last_service_mileage: int" style="text;strokeColor=none;fillColor=none;align=left;verticalAlign=top;spacingLeft=4;spacingRight=4;overflow=hidden;rotatable=0;points=[[0,0.5],[1,0.5]];portConstraint=eastwest;" parent="e-oUY0fip-9kM2Vb8ICr-4" vertex="1">
                    <mxGeometry y="26" width="200" height="54" as="geometry"/>
                </mxCell>
                <mxCell id="e-oUY0fip-9kM2Vb8ICr-6" value="" style="line;strokeWidth=1;fillColor=none;align=left;verticalAlign=middle;spacingTop=-1;spacingLeft=3;spacingRight=3;rotatable=0;labelPosition=right;points=[];portConstraint=eastwest;strokeColor=inherit;" parent="e-oUY0fip-9kM2Vb8ICr-4" vertex="1">
                    <mxGeometry y="80" width="200" height="8" as="geometry"/>
                </mxCell>
                <mxCell id="e-oUY0fip-9kM2Vb8ICr-7" value="+ engine_should_be_serviced(): bool" style="text;strokeColor=none;fillColor=none;align=left;verticalAlign=top;spacingLeft=4;spacingRight=4;overflow=hidden;rotatable=0;points=[[0,0.5],[1,0.5]];portConstraint=eastwest;fontSize=11;" parent="e-oUY0fip-9kM2Vb8ICr-4" vertex="1">
                    <mxGeometry y="88" width="200" height="32" as="geometry"/>
                </mxCell>
                <mxCell id="e-oUY0fip-9kM2Vb8ICr-18" style="edgeStyle=elbowEdgeStyle;rounded=0;orthogonalLoop=1;jettySize=auto;html=1;exitX=0.5;exitY=0;exitDx=0;exitDy=0;fontSize=11;elbow=vertical;entryX=0.311;entryY=1.058;entryDx=0;entryDy=0;entryPerimeter=0;" parent="WIyWlLk6GJQsqaUBKTNV-1" source="e-oUY0fip-9kM2Vb8ICr-14" target="e-oUY0fip-9kM2Vb8ICr-3" edge="1">
                    <mxGeometry relative="1" as="geometry">
                        <mxPoint x="320" y="440" as="targetPoint"/>
                    </mxGeometry>
                </mxCell>
                <mxCell id="e-oUY0fip-9kM2Vb8ICr-14" value="Sternman Engine" style="swimlane;fontStyle=1;align=center;verticalAlign=top;childLayout=stackLayout;horizontal=1;startSize=26;horizontalStack=0;resizeParent=1;resizeParentMax=0;resizeLast=0;collapsible=1;marginBottom=0;fontSize=11;" parent="WIyWlLk6GJQsqaUBKTNV-1" vertex="1">
                    <mxGeometry x="210" y="533" width="190" height="94" as="geometry"/>
                </mxCell>
                <mxCell id="e-oUY0fip-9kM2Vb8ICr-15" value="+ last_service_date: int&#10;+ warning_light_is_on: bool" style="text;strokeColor=none;fillColor=none;align=left;verticalAlign=top;spacingLeft=4;spacingRight=4;overflow=hidden;rotatable=0;points=[[0,0.5],[1,0.5]];portConstraint=eastwest;fontSize=11;" parent="e-oUY0fip-9kM2Vb8ICr-14" vertex="1">
                    <mxGeometry y="26" width="190" height="34" as="geometry"/>
                </mxCell>
                <mxCell id="e-oUY0fip-9kM2Vb8ICr-16" value="" style="line;strokeWidth=1;fillColor=none;align=left;verticalAlign=middle;spacingTop=-1;spacingLeft=3;spacingRight=3;rotatable=0;labelPosition=right;points=[];portConstraint=eastwest;strokeColor=inherit;fontSize=11;" parent="e-oUY0fip-9kM2Vb8ICr-14" vertex="1">
                    <mxGeometry y="60" width="190" height="8" as="geometry"/>
                </mxCell>
                <mxCell id="e-oUY0fip-9kM2Vb8ICr-17" value="+ engine_should_be_serviced(): bool" style="text;strokeColor=none;fillColor=none;align=left;verticalAlign=top;spacingLeft=4;spacingRight=4;overflow=hidden;rotatable=0;points=[[0,0.5],[1,0.5]];portConstraint=eastwest;fontSize=11;" parent="e-oUY0fip-9kM2Vb8ICr-14" vertex="1">
                    <mxGeometry y="68" width="190" height="26" as="geometry"/>
                </mxCell>
                <mxCell id="e-oUY0fip-9kM2Vb8ICr-23" style="edgeStyle=elbowEdgeStyle;rounded=0;orthogonalLoop=1;jettySize=auto;elbow=vertical;html=1;exitX=0.5;exitY=0;exitDx=0;exitDy=0;entryX=0.704;entryY=1.037;entryDx=0;entryDy=0;entryPerimeter=0;fontSize=11;" parent="WIyWlLk6GJQsqaUBKTNV-1" source="e-oUY0fip-9kM2Vb8ICr-19" target="e-oUY0fip-9kM2Vb8ICr-3" edge="1">
                    <mxGeometry relative="1" as="geometry"/>
                </mxCell>
                <mxCell id="e-oUY0fip-9kM2Vb8ICr-19" value="Capulet Engine" style="swimlane;fontStyle=1;align=center;verticalAlign=top;childLayout=stackLayout;horizontal=1;startSize=26;horizontalStack=0;resizeParent=1;resizeParentMax=0;resizeLast=0;collapsible=1;marginBottom=0;fontSize=11;" parent="WIyWlLk6GJQsqaUBKTNV-1" vertex="1">
                    <mxGeometry x="650" y="528" width="190" height="104" as="geometry"/>
                </mxCell>
                <mxCell id="e-oUY0fip-9kM2Vb8ICr-20" value="+ last_service_date: int&#10;+ current_mileage: int&#10;+ last_service_mileage: int" style="text;strokeColor=none;fillColor=none;align=left;verticalAlign=top;spacingLeft=4;spacingRight=4;overflow=hidden;rotatable=0;points=[[0,0.5],[1,0.5]];portConstraint=eastwest;fontSize=11;" parent="e-oUY0fip-9kM2Vb8ICr-19" vertex="1">
                    <mxGeometry y="26" width="190" height="44" as="geometry"/>
                </mxCell>
                <mxCell id="e-oUY0fip-9kM2Vb8ICr-21" value="" style="line;strokeWidth=1;fillColor=none;align=left;verticalAlign=middle;spacingTop=-1;spacingLeft=3;spacingRight=3;rotatable=0;labelPosition=right;points=[];portConstraint=eastwest;strokeColor=inherit;fontSize=11;" parent="e-oUY0fip-9kM2Vb8ICr-19" vertex="1">
                    <mxGeometry y="70" width="190" height="8" as="geometry"/>
                </mxCell>
                <mxCell id="e-oUY0fip-9kM2Vb8ICr-22" value="+ engine_should_be_serviced(): bool" style="text;strokeColor=none;fillColor=none;align=left;verticalAlign=top;spacingLeft=4;spacingRight=4;overflow=hidden;rotatable=0;points=[[0,0.5],[1,0.5]];portConstraint=eastwest;fontSize=11;" parent="e-oUY0fip-9kM2Vb8ICr-19" vertex="1">
                    <mxGeometry y="78" width="190" height="26" as="geometry"/>
                </mxCell>
                <mxCell id="e-oUY0fip-9kM2Vb8ICr-24" value="Thovex" style="swimlane;fontStyle=1;align=center;verticalAlign=top;childLayout=stackLayout;horizontal=1;startSize=26;horizontalStack=0;resizeParent=1;resizeParentMax=0;resizeLast=0;collapsible=1;marginBottom=0;fontSize=11;" parent="WIyWlLk6GJQsqaUBKTNV-1" vertex="1">
                    <mxGeometry x="730" y="820" width="160" height="86" as="geometry"/>
                </mxCell>
                <mxCell id="e-oUY0fip-9kM2Vb8ICr-29" value="" style="endArrow=diamondThin;endFill=1;endSize=24;html=1;rounded=0;fontSize=11;elbow=vertical;entryX=0.474;entryY=1.058;entryDx=0;entryDy=0;entryPerimeter=0;" parent="e-oUY0fip-9kM2Vb8ICr-24" target="e-oUY0fip-9kM2Vb8ICr-22" edge="1">
                    <mxGeometry width="160" relative="1" as="geometry">
                        <mxPoint x="75" as="sourcePoint"/>
                        <mxPoint x="235" as="targetPoint"/>
                    </mxGeometry>
                </mxCell>
                <mxCell id="e-oUY0fip-9kM2Vb8ICr-25" value="+ CapuletEngine()" style="text;strokeColor=none;fillColor=none;align=left;verticalAlign=top;spacingLeft=4;spacingRight=4;overflow=hidden;rotatable=0;points=[[0,0.5],[1,0.5]];portConstraint=eastwest;fontSize=11;" parent="e-oUY0fip-9kM2Vb8ICr-24" vertex="1">
                    <mxGeometry y="26" width="160" height="26" as="geometry"/>
                </mxCell>
                <mxCell id="e-oUY0fip-9kM2Vb8ICr-26" value="" style="line;strokeWidth=1;fillColor=none;align=left;verticalAlign=middle;spacingTop=-1;spacingLeft=3;spacingRight=3;rotatable=0;labelPosition=right;points=[];portConstraint=eastwest;strokeColor=inherit;fontSize=11;" parent="e-oUY0fip-9kM2Vb8ICr-24" vertex="1">
                    <mxGeometry y="52" width="160" height="8" as="geometry"/>
                </mxCell>
                <mxCell id="e-oUY0fip-9kM2Vb8ICr-27" value="+ needs_service(): bool" style="text;strokeColor=none;fillColor=none;align=left;verticalAlign=top;spacingLeft=4;spacingRight=4;overflow=hidden;rotatable=0;points=[[0,0.5],[1,0.5]];portConstraint=eastwest;fontSize=11;" parent="e-oUY0fip-9kM2Vb8ICr-24" vertex="1">
                    <mxGeometry y="60" width="160" height="26" as="geometry"/>
                </mxCell>
                <mxCell id="e-oUY0fip-9kM2Vb8ICr-30" value="Calliope" style="swimlane;fontStyle=1;align=center;verticalAlign=top;childLayout=stackLayout;horizontal=1;startSize=26;horizontalStack=0;resizeParent=1;resizeParentMax=0;resizeLast=0;collapsible=1;marginBottom=0;fontSize=11;" parent="WIyWlLk6GJQsqaUBKTNV-1" vertex="1">
                    <mxGeometry x="880" y="931" width="160" height="86" as="geometry"/>
                </mxCell>
                <mxCell id="e-oUY0fip-9kM2Vb8ICr-34" value="" style="endArrow=diamondThin;endFill=1;endSize=24;html=1;rounded=0;fontSize=11;elbow=vertical;entryX=1;entryY=0.352;entryDx=0;entryDy=0;entryPerimeter=0;" parent="e-oUY0fip-9kM2Vb8ICr-30" target="e-oUY0fip-9kM2Vb8ICr-20" edge="1">
                    <mxGeometry width="160" relative="1" as="geometry">
                        <mxPoint x="70" as="sourcePoint"/>
                        <mxPoint x="230" as="targetPoint"/>
                    </mxGeometry>
                </mxCell>
                <mxCell id="e-oUY0fip-9kM2Vb8ICr-31" value="+ CapuletEngine()" style="text;strokeColor=none;fillColor=none;align=left;verticalAlign=top;spacingLeft=4;spacingRight=4;overflow=hidden;rotatable=0;points=[[0,0.5],[1,0.5]];portConstraint=eastwest;fontSize=11;" parent="e-oUY0fip-9kM2Vb8ICr-30" vertex="1">
                    <mxGeometry y="26" width="160" height="26" as="geometry"/>
                </mxCell>
                <mxCell id="e-oUY0fip-9kM2Vb8ICr-32" value="" style="line;strokeWidth=1;fillColor=none;align=left;verticalAlign=middle;spacingTop=-1;spacingLeft=3;spacingRight=3;rotatable=0;labelPosition=right;points=[];portConstraint=eastwest;strokeColor=inherit;fontSize=11;" parent="e-oUY0fip-9kM2Vb8ICr-30" vertex="1">
                    <mxGeometry y="52" width="160" height="8" as="geometry"/>
                </mxCell>
                <mxCell id="e-oUY0fip-9kM2Vb8ICr-33" value="+ needs_service(): bool" style="text;strokeColor=none;fillColor=none;align=left;verticalAlign=top;spacingLeft=4;spacingRight=4;overflow=hidden;rotatable=0;points=[[0,0.5],[1,0.5]];portConstraint=eastwest;fontSize=11;" parent="e-oUY0fip-9kM2Vb8ICr-30" vertex="1">
                    <mxGeometry y="60" width="160" height="26" as="geometry"/>
                </mxCell>
                <mxCell id="e-oUY0fip-9kM2Vb8ICr-35" value="Glissade" style="swimlane;fontStyle=1;align=center;verticalAlign=top;childLayout=stackLayout;horizontal=1;startSize=26;horizontalStack=0;resizeParent=1;resizeParentMax=0;resizeLast=0;collapsible=1;marginBottom=0;fontSize=11;" parent="WIyWlLk6GJQsqaUBKTNV-1" vertex="1">
                    <mxGeometry x="310" y="906" width="160" height="86" as="geometry"/>
                </mxCell>
                <mxCell id="e-oUY0fip-9kM2Vb8ICr-36" value="+ WilloughbyEngine()" style="text;strokeColor=none;fillColor=none;align=left;verticalAlign=top;spacingLeft=4;spacingRight=4;overflow=hidden;rotatable=0;points=[[0,0.5],[1,0.5]];portConstraint=eastwest;fontSize=11;" parent="e-oUY0fip-9kM2Vb8ICr-35" vertex="1">
                    <mxGeometry y="26" width="160" height="26" as="geometry"/>
                </mxCell>
                <mxCell id="e-oUY0fip-9kM2Vb8ICr-37" value="" style="line;strokeWidth=1;fillColor=none;align=left;verticalAlign=middle;spacingTop=-1;spacingLeft=3;spacingRight=3;rotatable=0;labelPosition=right;points=[];portConstraint=eastwest;strokeColor=inherit;fontSize=11;" parent="e-oUY0fip-9kM2Vb8ICr-35" vertex="1">
                    <mxGeometry y="52" width="160" height="8" as="geometry"/>
                </mxCell>
                <mxCell id="e-oUY0fip-9kM2Vb8ICr-38" value="+ needs_service(): bool" style="text;strokeColor=none;fillColor=none;align=left;verticalAlign=top;spacingLeft=4;spacingRight=4;overflow=hidden;rotatable=0;points=[[0,0.5],[1,0.5]];portConstraint=eastwest;fontSize=11;" parent="e-oUY0fip-9kM2Vb8ICr-35" vertex="1">
                    <mxGeometry y="60" width="160" height="26" as="geometry"/>
                </mxCell>
                <mxCell id="e-oUY0fip-9kM2Vb8ICr-39" value="" style="endArrow=diamondThin;endFill=1;endSize=24;html=1;rounded=0;fontSize=11;elbow=vertical;exitX=0.5;exitY=0;exitDx=0;exitDy=0;entryX=0.284;entryY=1.109;entryDx=0;entryDy=0;entryPerimeter=0;" parent="WIyWlLk6GJQsqaUBKTNV-1" source="e-oUY0fip-9kM2Vb8ICr-35" target="e-oUY0fip-9kM2Vb8ICr-7" edge="1">
                    <mxGeometry width="160" relative="1" as="geometry">
                        <mxPoint x="500" y="700" as="sourcePoint"/>
                        <mxPoint x="660" y="700" as="targetPoint"/>
                    </mxGeometry>
                </mxCell>
                <mxCell id="e-oUY0fip-9kM2Vb8ICr-41" value="Rorschach" style="swimlane;fontStyle=1;align=center;verticalAlign=top;childLayout=stackLayout;horizontal=1;startSize=26;horizontalStack=0;resizeParent=1;resizeParentMax=0;resizeLast=0;collapsible=1;marginBottom=0;fontSize=11;" parent="WIyWlLk6GJQsqaUBKTNV-1" vertex="1">
                    <mxGeometry x="480" y="810" width="160" height="86" as="geometry"/>
                </mxCell>
                <mxCell id="e-oUY0fip-9kM2Vb8ICr-46" value="" style="endArrow=diamondThin;endFill=1;endSize=24;html=1;rounded=0;fontSize=11;elbow=vertical;entryX=0.584;entryY=1.109;entryDx=0;entryDy=0;entryPerimeter=0;" parent="e-oUY0fip-9kM2Vb8ICr-41" target="e-oUY0fip-9kM2Vb8ICr-7" edge="1">
                    <mxGeometry width="160" relative="1" as="geometry">
                        <mxPoint x="90" as="sourcePoint"/>
                        <mxPoint x="156" y="-70" as="targetPoint"/>
                    </mxGeometry>
                </mxCell>
                <mxCell id="e-oUY0fip-9kM2Vb8ICr-58" value="" style="endArrow=diamondThin;endFill=1;endSize=24;html=1;rounded=0;fontSize=11;elbow=vertical;entryX=0.356;entryY=1.192;entryDx=0;entryDy=0;entryPerimeter=0;" parent="e-oUY0fip-9kM2Vb8ICr-41" target="e-oUY0fip-9kM2Vb8ICr-56" edge="1">
                    <mxGeometry width="160" relative="1" as="geometry">
                        <mxPoint x="130" as="sourcePoint"/>
                        <mxPoint x="290" as="targetPoint"/>
                    </mxGeometry>
                </mxCell>
                <mxCell id="e-oUY0fip-9kM2Vb8ICr-42" value="+ WilloughbyEngine()" style="text;strokeColor=none;fillColor=none;align=left;verticalAlign=top;spacingLeft=4;spacingRight=4;overflow=hidden;rotatable=0;points=[[0,0.5],[1,0.5]];portConstraint=eastwest;fontSize=11;" parent="e-oUY0fip-9kM2Vb8ICr-41" vertex="1">
                    <mxGeometry y="26" width="160" height="26" as="geometry"/>
                </mxCell>
                <mxCell id="e-oUY0fip-9kM2Vb8ICr-43" value="" style="line;strokeWidth=1;fillColor=none;align=left;verticalAlign=middle;spacingTop=-1;spacingLeft=3;spacingRight=3;rotatable=0;labelPosition=right;points=[];portConstraint=eastwest;strokeColor=inherit;fontSize=11;" parent="e-oUY0fip-9kM2Vb8ICr-41" vertex="1">
                    <mxGeometry y="52" width="160" height="8" as="geometry"/>
                </mxCell>
                <mxCell id="e-oUY0fip-9kM2Vb8ICr-44" value="+ needs_service(): bool" style="text;strokeColor=none;fillColor=none;align=left;verticalAlign=top;spacingLeft=4;spacingRight=4;overflow=hidden;rotatable=0;points=[[0,0.5],[1,0.5]];portConstraint=eastwest;fontSize=11;" parent="e-oUY0fip-9kM2Vb8ICr-41" vertex="1">
                    <mxGeometry y="60" width="160" height="26" as="geometry"/>
                </mxCell>
                <mxCell id="e-oUY0fip-9kM2Vb8ICr-47" value="Palindrome" style="swimlane;fontStyle=1;align=center;verticalAlign=top;childLayout=stackLayout;horizontal=1;startSize=26;horizontalStack=0;resizeParent=1;resizeParentMax=0;resizeLast=0;collapsible=1;marginBottom=0;fontSize=11;" parent="WIyWlLk6GJQsqaUBKTNV-1" vertex="1">
                    <mxGeometry x="200" y="1030" width="160" height="86" as="geometry"/>
                </mxCell>
                <mxCell id="e-oUY0fip-9kM2Vb8ICr-51" value="" style="endArrow=diamondThin;endFill=1;endSize=24;html=1;rounded=0;fontSize=11;elbow=vertical;entryX=0.442;entryY=1.019;entryDx=0;entryDy=0;entryPerimeter=0;" parent="e-oUY0fip-9kM2Vb8ICr-47" target="e-oUY0fip-9kM2Vb8ICr-17" edge="1">
                    <mxGeometry width="160" relative="1" as="geometry">
                        <mxPoint x="90" as="sourcePoint"/>
                        <mxPoint x="250" as="targetPoint"/>
                    </mxGeometry>
                </mxCell>
                <mxCell id="e-oUY0fip-9kM2Vb8ICr-48" value="+ SternmanEngine()" style="text;strokeColor=none;fillColor=none;align=left;verticalAlign=top;spacingLeft=4;spacingRight=4;overflow=hidden;rotatable=0;points=[[0,0.5],[1,0.5]];portConstraint=eastwest;fontSize=11;" parent="e-oUY0fip-9kM2Vb8ICr-47" vertex="1">
                    <mxGeometry y="26" width="160" height="26" as="geometry"/>
                </mxCell>
                <mxCell id="e-oUY0fip-9kM2Vb8ICr-49" value="" style="line;strokeWidth=1;fillColor=none;align=left;verticalAlign=middle;spacingTop=-1;spacingLeft=3;spacingRight=3;rotatable=0;labelPosition=right;points=[];portConstraint=eastwest;strokeColor=inherit;fontSize=11;" parent="e-oUY0fip-9kM2Vb8ICr-47" vertex="1">
                    <mxGeometry y="52" width="160" height="8" as="geometry"/>
                </mxCell>
                <mxCell id="e-oUY0fip-9kM2Vb8ICr-50" value="+ needs_service(): bool" style="text;strokeColor=none;fillColor=none;align=left;verticalAlign=top;spacingLeft=4;spacingRight=4;overflow=hidden;rotatable=0;points=[[0,0.5],[1,0.5]];portConstraint=eastwest;fontSize=11;" parent="e-oUY0fip-9kM2Vb8ICr-47" vertex="1">
                    <mxGeometry y="60" width="160" height="26" as="geometry"/>
                </mxCell>
                <mxCell id="e-oUY0fip-9kM2Vb8ICr-53" value="Nubbin Battery" style="swimlane;fontStyle=1;align=center;verticalAlign=top;childLayout=stackLayout;horizontal=1;startSize=26;horizontalStack=0;resizeParent=1;resizeParentMax=0;resizeLast=0;collapsible=1;marginBottom=0;fontSize=11;" parent="WIyWlLk6GJQsqaUBKTNV-1" vertex="1">
                    <mxGeometry x="590" y="690" width="160" height="86" as="geometry"/>
                </mxCell>
                <mxCell id="e-oUY0fip-9kM2Vb8ICr-54" value="+ last_service_date: int" style="text;strokeColor=none;fillColor=none;align=left;verticalAlign=top;spacingLeft=4;spacingRight=4;overflow=hidden;rotatable=0;points=[[0,0.5],[1,0.5]];portConstraint=eastwest;fontSize=11;" parent="e-oUY0fip-9kM2Vb8ICr-53" vertex="1">
                    <mxGeometry y="26" width="160" height="26" as="geometry"/>
                </mxCell>
                <mxCell id="e-oUY0fip-9kM2Vb8ICr-55" value="" style="line;strokeWidth=1;fillColor=none;align=left;verticalAlign=middle;spacingTop=-1;spacingLeft=3;spacingRight=3;rotatable=0;labelPosition=right;points=[];portConstraint=eastwest;strokeColor=inherit;fontSize=11;" parent="e-oUY0fip-9kM2Vb8ICr-53" vertex="1">
                    <mxGeometry y="52" width="160" height="8" as="geometry"/>
                </mxCell>
                <mxCell id="e-oUY0fip-9kM2Vb8ICr-56" value="+ needs_service(): bool" style="text;strokeColor=none;fillColor=none;align=left;verticalAlign=top;spacingLeft=4;spacingRight=4;overflow=hidden;rotatable=0;points=[[0,0.5],[1,0.5]];portConstraint=eastwest;fontSize=11;" parent="e-oUY0fip-9kM2Vb8ICr-53" vertex="1">
                    <mxGeometry y="60" width="160" height="26" as="geometry"/>
                </mxCell>
                <mxCell id="e-oUY0fip-9kM2Vb8ICr-57" value="" style="endArrow=diamondThin;endFill=1;endSize=24;html=1;rounded=0;fontSize=11;elbow=vertical;entryX=0.653;entryY=1.096;entryDx=0;entryDy=0;entryPerimeter=0;exitX=0.333;exitY=-0.032;exitDx=0;exitDy=0;exitPerimeter=0;" parent="WIyWlLk6GJQsqaUBKTNV-1" source="e-oUY0fip-9kM2Vb8ICr-24" target="e-oUY0fip-9kM2Vb8ICr-56" edge="1">
                    <mxGeometry width="160" relative="1" as="geometry">
                        <mxPoint x="800" y="878.75" as="sourcePoint"/>
                        <mxPoint x="960" y="878.75" as="targetPoint"/>
                    </mxGeometry>
                </mxCell>
                <mxCell id="e-oUY0fip-9kM2Vb8ICr-60" value="Spindler Battery" style="swimlane;fontStyle=1;align=center;verticalAlign=top;childLayout=stackLayout;horizontal=1;startSize=26;horizontalStack=0;resizeParent=1;resizeParentMax=0;resizeLast=0;collapsible=1;marginBottom=0;fontSize=11;" parent="WIyWlLk6GJQsqaUBKTNV-1" vertex="1">
                    <mxGeometry x="604" y="1070" width="160" height="86" as="geometry"/>
                </mxCell>
                <mxCell id="e-oUY0fip-9kM2Vb8ICr-61" value="+ last_service_date: int" style="text;strokeColor=none;fillColor=none;align=left;verticalAlign=top;spacingLeft=4;spacingRight=4;overflow=hidden;rotatable=0;points=[[0,0.5],[1,0.5]];portConstraint=eastwest;fontSize=11;" parent="e-oUY0fip-9kM2Vb8ICr-60" vertex="1">
                    <mxGeometry y="26" width="160" height="26" as="geometry"/>
                </mxCell>
                <mxCell id="e-oUY0fip-9kM2Vb8ICr-62" value="" style="line;strokeWidth=1;fillColor=none;align=left;verticalAlign=middle;spacingTop=-1;spacingLeft=3;spacingRight=3;rotatable=0;labelPosition=right;points=[];portConstraint=eastwest;strokeColor=inherit;fontSize=11;" parent="e-oUY0fip-9kM2Vb8ICr-60" vertex="1">
                    <mxGeometry y="52" width="160" height="8" as="geometry"/>
                </mxCell>
                <mxCell id="e-oUY0fip-9kM2Vb8ICr-63" value="+ needs_service(): bool" style="text;strokeColor=none;fillColor=none;align=left;verticalAlign=top;spacingLeft=4;spacingRight=4;overflow=hidden;rotatable=0;points=[[0,0.5],[1,0.5]];portConstraint=eastwest;fontSize=11;" parent="e-oUY0fip-9kM2Vb8ICr-60" vertex="1">
                    <mxGeometry y="60" width="160" height="26" as="geometry"/>
                </mxCell>
                <mxCell id="e-oUY0fip-9kM2Vb8ICr-68" value="" style="endArrow=diamondThin;endFill=1;endSize=24;html=1;rounded=0;fontSize=11;elbow=vertical;exitX=1;exitY=0.5;exitDx=0;exitDy=0;entryX=0.348;entryY=-0.017;entryDx=0;entryDy=0;entryPerimeter=0;" parent="WIyWlLk6GJQsqaUBKTNV-1" source="e-oUY0fip-9kM2Vb8ICr-36" target="e-oUY0fip-9kM2Vb8ICr-60" edge="1">
                    <mxGeometry width="160" relative="1" as="geometry">
                        <mxPoint x="580" y="990" as="sourcePoint"/>
                        <mxPoint x="740" y="990" as="targetPoint"/>
                    </mxGeometry>
                </mxCell>
                <mxCell id="e-oUY0fip-9kM2Vb8ICr-69" value="" style="endArrow=diamondThin;endFill=1;endSize=24;html=1;rounded=0;fontSize=11;elbow=vertical;exitX=0;exitY=0.5;exitDx=0;exitDy=0;entryX=0.75;entryY=0;entryDx=0;entryDy=0;" parent="WIyWlLk6GJQsqaUBKTNV-1" source="e-oUY0fip-9kM2Vb8ICr-31" target="e-oUY0fip-9kM2Vb8ICr-60" edge="1">
                    <mxGeometry width="160" relative="1" as="geometry">
                        <mxPoint x="750" y="1100" as="sourcePoint"/>
                        <mxPoint x="910" y="1100" as="targetPoint"/>
                    </mxGeometry>
                </mxCell>
                <mxCell id="e-oUY0fip-9kM2Vb8ICr-70" value="" style="endArrow=diamondThin;endFill=1;endSize=24;html=1;rounded=0;fontSize=11;elbow=vertical;exitX=1;exitY=0.5;exitDx=0;exitDy=0;entryX=0;entryY=0.5;entryDx=0;entryDy=0;" parent="WIyWlLk6GJQsqaUBKTNV-1" source="e-oUY0fip-9kM2Vb8ICr-48" target="e-oUY0fip-9kM2Vb8ICr-61" edge="1">
                    <mxGeometry width="160" relative="1" as="geometry">
                        <mxPoint x="330" y="1138.75" as="sourcePoint"/>
                        <mxPoint x="490" y="1138.75" as="targetPoint"/>
                    </mxGeometry>
                </mxCell>
            </root>
        </mxGraphModel>
    </diagram>
</mxfile>